<svg width="31" height="30" viewBox="0 0 31 30" fill="none" xmlns="http://www.w3.org/2000/svg">
<g id="web_public_airplane-flight">
<path id="Path 13423" d="M27.415 9.2389C26.9256 8.38429 25.7212 7.82778 23.8362 7.58377C22.6718 7.43932 21.4906 7.56925 20.3828 7.9636L17.9566 8.83031L13.2398 6.47076C12.6849 6.19517 12.0813 6.037 11.4652 6.00575C10.8491 5.9745 10.2331 6.07081 9.65427 6.2889L8.0387 6.90527C7.8707 6.96923 7.72285 7.07872 7.61097 7.22201C7.49909 7.3653 7.42737 7.53701 7.4035 7.71877C7.37964 7.90054 7.40452 8.08551 7.47549 8.25393C7.54645 8.42235 7.66083 8.56786 7.80638 8.67491L11.2665 11.2186L5.90896 13.1287C5.81668 13.1604 5.71812 13.168 5.62223 13.1508C5.52634 13.1337 5.43617 13.0922 5.35993 13.0303L4.11675 11.9783C3.86508 11.7662 3.5635 11.6253 3.24205 11.5696C2.92061 11.5139 2.5905 11.5452 2.28459 11.6606L1.79406 11.8482C1.58104 11.9285 1.38559 12.0511 1.21889 12.2087C1.05218 12.3664 0.917488 12.5561 0.822508 12.7671C0.727528 12.9781 0.674125 13.2061 0.665353 13.4382C0.656581 13.6703 0.692611 13.9019 0.771385 14.1197C0.77926 14.1427 0.788263 14.1652 0.797264 14.1882L1.90544 16.908C2.39432 17.9159 3.22752 18.7054 4.24723 19.127C5.26693 19.5486 6.40236 19.573 7.43847 19.1956L12.3387 17.3586L11.6186 20.323C11.569 20.5214 11.5643 20.7289 11.605 20.9294C11.6458 21.13 11.7307 21.3184 11.8535 21.4802C11.9763 21.642 12.1336 21.773 12.3134 21.8631C12.4933 21.9531 12.6909 22 12.8911 22C13.0308 22.0005 13.1697 21.9777 13.3023 21.9327L14.4673 21.5482C15.0176 21.3673 15.5235 21.0673 15.9506 20.6688C16.3776 20.2702 16.7159 19.7823 16.9424 19.2382L17.9386 16.8579C18.1452 16.3681 18.4487 15.9273 18.8301 15.5635C19.2115 15.1997 19.6624 14.9207 20.1544 14.7441L25.5418 12.8271C25.9715 12.6857 26.3669 12.4525 26.7019 12.143C27.0368 11.8334 27.3037 11.4546 27.4848 11.0316C27.6137 10.7487 27.6747 10.4384 27.6625 10.1266C27.6504 9.81472 27.5655 9.51036 27.415 9.2389ZM13.7872 17.2895C13.8626 16.9799 13.8153 16.6523 13.6555 16.3783C13.4957 16.1042 13.2365 15.9059 12.9344 15.8266C12.84 15.8024 12.7431 15.7901 12.6458 15.7898C12.5081 15.79 12.3716 15.8151 12.2425 15.864L6.95471 17.8449C6.24502 18.0961 5.47049 18.0764 4.77386 17.7895C4.07722 17.5026 3.50542 16.9678 3.16382 16.2836L2.08602 13.6288C2.06961 13.5863 2.0616 13.5409 2.06247 13.4952C2.06333 13.4496 2.07304 13.4045 2.09104 13.3627C2.10904 13.3209 2.13497 13.2832 2.16732 13.2517C2.19968 13.2202 2.23781 13.1956 2.27952 13.1793L2.77117 12.9917C2.84638 12.9635 2.9275 12.9559 3.00646 12.9697C3.08542 12.9836 3.15946 13.0183 3.2212 13.0706L4.46551 14.1226C4.72683 14.3416 5.03849 14.4886 5.37094 14.5499C5.70339 14.6111 6.04561 14.5845 6.36517 14.4725L20.8407 9.3097C21.7437 8.98501 22.7078 8.87806 23.6579 8.9972C24.9916 9.16985 25.9643 9.53932 26.2022 9.95195C26.2441 10.0318 26.2653 10.1213 26.2639 10.212C26.2625 10.3026 26.2386 10.3914 26.1943 10.4699V10.4768C26.0877 10.7123 25.9339 10.9223 25.7429 11.0931C25.5519 11.2639 25.328 11.3917 25.0856 11.4684L19.6949 13.3854C19.0191 13.628 18.4001 14.0117 17.8772 14.5123C17.3542 15.0128 16.9388 15.6191 16.6572 16.2928L15.6598 18.673C15.5111 19.0295 15.289 19.349 15.0086 19.6097C14.7283 19.8704 14.3963 20.0662 14.0353 20.1837L13.007 20.5164L13.7872 17.2895ZM12.6177 7.75297L16.0902 9.4927L12.877 10.6397L9.23914 7.96764L10.1347 7.62694C10.5355 7.47591 10.9621 7.40923 11.3887 7.43088C11.8154 7.45254 12.2334 7.56209 12.6177 7.75297Z" fill="white"/>
</g>
</svg>
