<svg width="25" height="24" viewBox="0 0 25 24" fill="none" xmlns="http://www.w3.org/2000/svg">
<g id="web_public_hotel">
<path id="Path 13425" d="M21.394 11.2635V6.69299C21.3922 5.97942 21.108 5.29558 20.6035 4.79095C20.099 4.28633 19.4152 4.00198 18.7016 4H6.58664C5.87298 4.00185 5.18918 4.28614 4.68454 4.79077C4.1799 5.29541 3.89537 5.97933 3.89352 6.69299V11.2755C3.09524 11.5738 2.40668 12.108 1.91916 12.807C1.43164 13.506 1.16823 14.3368 1.16403 15.189V15.886C1.16667 16.5457 1.43009 17.1777 1.8967 17.6441C2.36331 18.1105 2.99549 18.3736 3.65524 18.376H5.01755V19.5515C5.01755 19.7356 5.09072 19.9122 5.22092 20.0424C5.35111 20.1726 5.52776 20.2457 5.71188 20.2457C5.89601 20.2457 6.07265 20.1726 6.20285 20.0424C6.33305 19.9122 6.40622 19.7356 6.40622 19.5515V18.376H17.4826V19.5515C17.4826 19.7355 17.5559 19.9121 17.686 20.0422C17.8162 20.1724 17.9927 20.2455 18.1767 20.2455C18.3608 20.2455 18.5373 20.1724 18.6674 20.0422C18.7976 19.9121 18.8706 19.7355 18.8706 19.5515V18.376H21.6662C22.3261 18.3743 22.9584 18.1114 23.425 17.6448C23.8916 17.1782 24.1545 16.5458 24.1562 15.886V15.1895C24.1535 14.3309 23.887 13.494 23.393 12.7918C22.899 12.0896 22.2011 11.5561 21.394 11.2635ZM13.1562 8.83099C13.1569 8.63543 13.2349 8.44807 13.3733 8.30988C13.5116 8.17168 13.6992 8.0939 13.8947 8.09351H17.0612C17.2566 8.09403 17.4436 8.17191 17.5818 8.31012C17.7199 8.44833 17.7977 8.6356 17.7981 8.83099V10.9885H13.1562V8.83099ZM7.38058 8.82697C7.38137 8.6316 7.45938 8.44443 7.59738 8.30615C7.73538 8.16787 7.92229 8.08968 8.11765 8.0885H11.2841C11.4798 8.08903 11.6673 8.16698 11.8056 8.30536C11.944 8.44374 12.0221 8.63127 12.0227 8.82697V10.9885H7.38107L7.38058 8.82697ZM20.2656 10.9885H18.9292V8.83099C18.9277 8.33615 18.7305 7.862 18.3806 7.51208C18.0307 7.16217 17.5566 6.96495 17.0617 6.9635H13.8952C13.5479 7.30891 13.0777 7.50246 12.5879 7.50171C12.098 7.50096 11.6285 7.30594 11.2822 6.95947H8.11569C7.62085 6.96106 7.14666 7.15842 6.79684 7.50842C6.44703 7.85843 6.25007 8.33261 6.24875 8.82745V10.989H5.02267V6.6925C5.0236 6.27821 5.18851 5.88113 5.48141 5.58813C5.77432 5.29514 6.17137 5.13002 6.58566 5.12897H18.7011C19.1155 5.13015 19.5126 5.29525 19.8056 5.5882C20.0987 5.88114 20.2638 6.27816 20.2651 6.6925L20.2656 10.9885ZM21.6657 17.244H3.65305C3.29319 17.2424 2.94857 17.0988 2.69406 16.8444C2.43955 16.5899 2.29587 16.2454 2.29416 15.8855V15.189C2.29653 14.3769 2.62013 13.5987 3.19431 13.0245C3.76848 12.4502 4.54654 12.1265 5.35861 12.124H19.9587C20.771 12.1263 21.5492 12.4501 22.1235 13.0245C22.6978 13.5989 23.0214 14.3772 23.0237 15.1895L23.0261 15.8855C23.0243 16.2452 22.8806 16.5897 22.6262 16.8441C22.3718 17.0984 22.0274 17.2421 21.6677 17.244H21.6657Z" fill="#2B475A"/>
</g>
</svg>
