<svg width="26" height="25" viewBox="0 0 26 25" fill="none" xmlns="http://www.w3.org/2000/svg">
<g id="web_public_train">
<g id="Group 11000">
<path id="Path 15033" d="M9.95478 12.1344L1.7598 12.137C1.60785 12.137 1.46212 12.1973 1.35468 12.3048C1.24723 12.4122 1.18683 12.558 1.18683 12.7099C1.18683 12.8618 1.24723 13.0076 1.35468 13.115C1.46212 13.2225 1.60785 13.2828 1.7598 13.2828H9.95478C10.4595 13.2828 10.9434 13.0823 11.3004 12.7254C11.6573 12.3685 11.8578 11.8845 11.8578 11.3797C11.8578 10.875 11.6573 10.3909 11.3004 10.034C10.9434 9.67711 10.4595 9.47656 9.95478 9.47656H1.7598C1.60785 9.47656 1.46212 9.53697 1.35468 9.64441C1.24723 9.75185 1.18683 9.89752 1.18683 10.0495C1.18683 10.2014 1.24723 10.3471 1.35468 10.4546C1.46212 10.562 1.60785 10.6224 1.7598 10.6224H9.95478C10.1547 10.6224 10.3462 10.7018 10.4876 10.8432C10.6289 10.9845 10.7083 11.1762 10.7083 11.3761C10.7083 11.576 10.6289 11.7676 10.4876 11.9089C10.3462 12.0503 10.1547 12.1297 9.95478 12.1297V12.1344Z" fill="white"/>
<path id="Path 15034" d="M24.5692 18.0716H18.8553C18.8762 17.9777 18.8872 17.8819 18.8881 17.7857C18.8873 17.7028 18.879 17.6202 18.8632 17.5388H21.6304C22.1428 17.5383 22.6482 17.4204 23.108 17.194C23.5203 16.9866 23.8863 16.6979 24.1842 16.3454C24.4821 15.9928 24.7055 15.5836 24.8411 15.1425C24.9701 14.7553 25.0183 14.3458 24.9825 13.9393C24.9467 13.5328 24.8276 13.138 24.6328 12.7795C23.8111 11.6274 22.8473 10.5838 21.7642 9.67321C20.9345 8.90915 20.0255 8.11431 19.1641 7.36691C17.8534 6.30842 16.2198 5.73089 14.5351 5.73047C14.4601 5.73047 14.384 5.73046 14.3085 5.73358H1.76472C1.61277 5.73358 1.46704 5.79399 1.3596 5.90143C1.25216 6.00887 1.19175 6.15454 1.19175 6.30649C1.19175 6.45843 1.25216 6.60417 1.3596 6.71161C1.46704 6.81905 1.61277 6.87946 1.76472 6.87946H14.309C15.7945 6.82643 17.2499 7.30677 18.4121 8.23361L18.4433 8.26069C18.8512 8.61486 19.3454 9.04194 19.8662 9.506H15.2141C14.7093 9.506 14.2254 9.70649 13.8685 10.0634C13.5116 10.4203 13.311 10.9044 13.311 11.4092C13.311 11.9139 13.5116 12.3979 13.8685 12.7549C14.2254 13.1118 14.7093 13.3122 15.2141 13.3122H23.611C23.6193 13.3253 23.6266 13.3367 23.6313 13.344C23.7485 13.5658 23.8191 13.8092 23.8389 14.0592C23.8586 14.3093 23.8274 14.5607 23.7465 14.7982C23.6552 15.0902 23.5068 15.3611 23.3101 15.5954C23.1135 15.8297 22.8723 16.0227 22.6006 16.1633C22.2968 16.3112 21.9635 16.3885 21.6256 16.3893H17.5677C17.5584 16.3889 17.5493 16.3876 17.5403 16.3852C17.5008 16.3791 17.4605 16.3791 17.421 16.3852L6.14221 16.3883C6.1329 16.3878 6.12379 16.3864 6.11475 16.3841C6.07592 16.3781 6.03634 16.3781 5.99751 16.3841L1.7632 16.3873C1.61125 16.3873 1.46552 16.4476 1.35808 16.5551C1.25063 16.6625 1.19023 16.8082 1.19023 16.9602C1.19023 17.1121 1.25063 17.2579 1.35808 17.3653C1.46552 17.4727 1.61125 17.5331 1.7632 17.5331H4.67966C4.64451 17.7091 4.64741 17.8905 4.68805 18.0654H1.75684C1.60561 18.0654 1.46057 18.1251 1.35324 18.2317C1.24592 18.3382 1.18497 18.4829 1.18387 18.6341C1.18366 18.7102 1.19861 18.7856 1.22761 18.8559C1.25661 18.9262 1.29922 18.9901 1.35299 19.044C1.40676 19.0978 1.47063 19.1404 1.54093 19.1695C1.61123 19.1985 1.68662 19.2134 1.76269 19.2133H24.5522C24.7041 19.2152 24.8505 19.1567 24.9594 19.0506C25.0682 18.9446 25.1304 18.7996 25.1323 18.6477C25.1342 18.4957 25.0759 18.3492 24.9698 18.2404C24.8637 18.1316 24.7186 18.0694 24.5667 18.0675L24.5692 18.0716ZM22.6766 12.1638H15.2156C15.0153 12.1638 14.8234 12.0843 14.6818 11.9426C14.5402 11.801 14.4605 11.6089 14.4605 11.4086C14.4605 11.2083 14.5402 11.0162 14.6818 10.8746C14.8234 10.733 15.0153 10.6534 15.2156 10.6534H21.1319C21.7569 11.2326 22.273 11.7414 22.6751 12.1638H22.6766ZM17.7402 17.7888V17.8096C17.7363 17.8739 17.7083 17.9343 17.6618 17.9789C17.6154 18.0235 17.554 18.049 17.4897 18.0503H17.4851C17.4203 18.0507 17.3577 18.0266 17.3099 17.9829C17.2621 17.9391 17.2325 17.879 17.2272 17.8144C17.2219 17.7498 17.2413 17.6857 17.2814 17.6347C17.3214 17.5838 17.3794 17.5499 17.4434 17.5399H17.5166C17.5772 17.5474 17.6333 17.5766 17.674 17.622C17.7148 17.6675 17.7377 17.7262 17.7386 17.7873L17.7402 17.7888ZM7.43769 17.5399H16.1052C16.0889 17.6221 16.0806 17.7056 16.0803 17.7894C16.0814 17.8847 16.0926 17.9796 16.1136 18.0727H7.43031C7.47023 17.8969 7.47139 17.7146 7.43387 17.5383L7.43769 17.5399ZM6.31616 17.7841C6.31473 17.8179 6.30656 17.8511 6.29226 17.8817C6.27796 17.9124 6.25798 17.9399 6.233 17.9627C6.20834 17.9857 6.17923 18.0035 6.14755 18.0151C6.11588 18.0266 6.08229 18.0317 6.04863 18.0299C5.98548 18.0309 5.92438 18.0076 5.87798 17.9647C5.83159 17.9219 5.80342 17.8628 5.7994 17.7998C5.79538 17.7368 5.81579 17.6746 5.85637 17.6262C5.89694 17.5778 5.95459 17.5469 6.01735 17.5399H6.09542C6.15499 17.5476 6.20983 17.5763 6.25004 17.6209C6.29026 17.6655 6.31314 17.723 6.31464 17.7831L6.31616 17.7841Z" fill="white"/>
</g>
</g>
</svg>
